# xmcd CD database file
#
# Track frame offsets:
#	187
#	35167
#	62047
#	92945
#	115337
#	141195
#	164312
#	188305
#	224582
#	259002
#
# Disc length: 3905 seconds
#
# Revision: 4
# Processed by: cddbd v1.5.2PL0 Copyright (c) Steve Scherf et al.
# Submitted via: CDex 1.51
#
DISCID=920f3f0a
DTITLE=Howlin' Wolf - Live And Cookin' At Alices Revisited
DYEAR=2003
DGENRE=Blues
TTITLE0=When I Laid Down I Was Troubled
TTITLE1=I Didn't Know
TTITLE2=Mean Mistreater
TTITLE3=I Had A Dream
TTITLE4=Call Me The Wolf
TTITLE5=Don't Laugh At Me
TTITLE6=Just Passing By
TTITLE7=Sitting On Top Of The World
TTITLE8=The Big House
TTITLE9=Mr. Airplane Man
EXTD=YEAR: 2003
EXTT0=
EXTT1=
EXTT2=
EXTT3=
EXTT4=
EXTT5=
EXTT6=
EXTT7=
EXTT8=
EXTT9=Previously unreleased bonus track
PLAYORDER=
